# xmcd CD database file
#
# Track frame offsets:
#	150
#	26929
#	52688
#	81496
#	109988
#	144671
#	168262
#	193160
#	233709
#	266572
#
# Disc length: 3660 seconds
#
# Revision: 0
# Processed by: cddbd v1.5.2PL0 Copyright (c) Steve Scherf et al.
# Submitted via: CDex 1.51
#
DISCID=8a0e4a0a
DTITLE=Herbie Hancock and Wayne Shorter - 1+1
DYEAR=1997
DGENRE=Jazz
TTITLE0=Meridiane - A wood sylp
TTITLE1=aung san suu kyi
TTITLE2=sonrisa
TTITLE3=memory of enchantment
TTITLE4=visitor from nowhere
TTITLE5=joanna's theme
TTITLE6=diana
TTITLE7=visitor from somewhere
TTITLE8=manahattan lorelei
TTITLE9=hale-bopp hip-hop
EXTD=YEAR: 1997
EXTT0=
EXTT1=
EXTT2=
EXTT3=
EXTT4=
EXTT5=
EXTT6=
EXTT7=
EXTT8=
EXTT9=
PLAYORDER=
